<svg width="280" height="125" viewBox="0 0 280 125" fill="none" xmlns="http://www.w3.org/2000/svg">
<path d="M131.695 102.788C131.797 102.885 131.877 103.003 131.929 103.134C131.981 103.265 132.005 103.406 131.999 103.547C132.004 103.682 131.979 103.817 131.926 103.942C131.874 104.067 131.795 104.178 131.695 104.268C131.586 104.369 131.458 104.446 131.319 104.495C131.18 104.545 131.033 104.566 130.886 104.557H128.49V113.791C128.492 113.949 128.464 114.106 128.406 114.252C128.348 114.399 128.263 114.532 128.154 114.644C127.927 114.872 127.621 115 127.302 115C126.983 115 126.677 114.872 126.45 114.644C126.341 114.532 126.255 114.399 126.197 114.252C126.14 114.106 126.111 113.949 126.114 113.791V104.544H125.114C124.967 104.553 124.82 104.533 124.681 104.483C124.542 104.434 124.414 104.356 124.305 104.256C124.207 104.167 124.129 104.058 124.076 103.935C124.024 103.813 123.998 103.68 124.001 103.547C123.995 103.406 124.019 103.265 124.071 103.134C124.123 103.003 124.203 102.885 124.305 102.788C124.527 102.588 124.818 102.486 125.114 102.504H126.114V102.092C126.093 101.141 126.278 100.198 126.656 99.3295V99.3007L126.685 99.2388L126.733 99.144V99.1152C126.757 99.0657 126.786 99.0162 126.814 98.9668L126.855 98.8926C127.178 98.3687 127.612 97.9251 128.125 97.594C128.454 97.3822 128.815 97.2276 129.194 97.1364C129.887 96.9545 130.614 96.9545 131.307 97.1364C131.437 97.1699 131.557 97.2334 131.659 97.322C131.761 97.4107 131.841 97.5221 131.894 97.6476C131.941 97.7583 131.966 97.8774 131.967 97.998C131.966 98.126 131.939 98.2524 131.885 98.3685C131.832 98.4845 131.755 98.5874 131.659 98.6699C131.515 98.7977 131.332 98.8718 131.141 98.8802H130.975C130.36 98.8292 129.746 98.9935 129.235 99.346L129.206 99.3666C129.147 99.41 129.094 99.4613 129.048 99.5192C128.949 99.6344 128.866 99.7635 128.801 99.9026C128.8 99.9121 128.8 99.9219 128.801 99.9314C128.571 100.624 128.462 101.352 128.482 102.083V102.496H130.878C131.026 102.487 131.175 102.508 131.315 102.559C131.456 102.609 131.585 102.687 131.695 102.788V102.788Z" fill="#7D749E"/>
<path d="M99.14 111.87C99.2402 111.968 99.3201 112.084 99.375 112.213C99.4299 112.342 99.4588 112.48 99.46 112.62C99.4609 112.759 99.433 112.896 99.3779 113.024C99.3228 113.151 99.2418 113.266 99.14 113.36C99.0474 113.465 98.9337 113.55 98.8062 113.609C98.6787 113.667 98.5403 113.698 98.4 113.7C98.1096 113.688 97.8345 113.567 97.63 113.36L96.76 112.49C95.3725 113.363 93.779 113.854 92.1407 113.914C90.5024 113.974 88.8774 113.6 87.43 112.83C86.1628 112.139 85.1213 111.097 84.43 109.83C83.7266 108.466 83.3596 106.954 83.3596 105.42C83.3596 103.886 83.7266 102.374 84.43 101.01C85.1267 99.7468 86.1668 98.7067 87.43 98.01C88.7827 97.3004 90.2875 96.9297 91.815 96.9297C93.3425 96.9297 94.8473 97.3004 96.2 98.01C97.458 98.7136 98.4964 99.752 99.2 101.01C99.9258 102.362 100.294 103.876 100.27 105.41C100.283 106.474 100.114 107.533 99.77 108.54C99.457 109.475 98.972 110.343 98.34 111.1L99.14 111.87ZM95.23 110.96L93.18 108.96C92.9796 108.751 92.8592 108.479 92.84 108.19C92.8498 107.905 92.9721 107.635 93.18 107.44C93.3821 107.23 93.6587 107.108 93.95 107.1C94.092 107.1 94.2323 107.131 94.3616 107.189C94.491 107.248 94.6063 107.333 94.7 107.44L96.8 109.57C97.7033 108.378 98.1757 106.915 98.14 105.42C98.1515 104.264 97.8767 103.124 97.34 102.1C96.8193 101.128 96.0408 100.318 95.09 99.76C94.0919 99.203 92.968 98.9106 91.825 98.9106C90.682 98.9106 89.5581 99.203 88.56 99.76C87.6092 100.318 86.8307 101.128 86.31 102.1C85.7779 103.126 85.5001 104.264 85.5001 105.42C85.5001 106.576 85.7779 107.714 86.31 108.74C86.8294 109.719 87.6122 110.533 88.57 111.09C89.5857 111.675 90.7403 111.975 91.9124 111.96C93.0844 111.944 94.2305 111.612 95.23 111V110.96Z" fill="#7D749E"/>
<path d="M117.89 105.1C117.381 104.205 116.641 103.463 115.747 102.951C114.854 102.44 113.84 102.177 112.81 102.19C111.758 102.178 110.723 102.447 109.81 102.97C108.926 103.475 108.197 104.211 107.7 105.1C107.185 106.015 106.92 107.05 106.93 108.1C106.919 109.143 107.162 110.173 107.64 111.1C108.101 111.976 108.792 112.709 109.64 113.22C110.477 113.73 111.44 113.993 112.42 113.98C113.206 113.986 113.983 113.816 114.694 113.482C115.406 113.148 116.033 112.659 116.53 112.05V112.83C116.522 112.975 116.546 113.119 116.599 113.254C116.653 113.389 116.735 113.51 116.84 113.61C116.939 113.714 117.058 113.795 117.191 113.849C117.324 113.902 117.467 113.926 117.61 113.92C117.755 113.928 117.899 113.904 118.034 113.851C118.169 113.797 118.29 113.715 118.39 113.61C118.491 113.507 118.571 113.385 118.624 113.251C118.677 113.117 118.703 112.974 118.7 112.83V108.09C118.701 107.039 118.422 106.007 117.89 105.1ZM116.09 110.1C115.78 110.691 115.313 111.186 114.74 111.53C114.156 111.871 113.491 112.05 112.815 112.05C112.139 112.05 111.474 111.871 110.89 111.53C110.319 111.181 109.85 110.688 109.53 110.1C109.201 109.472 109.03 108.774 109.03 108.065C109.03 107.356 109.201 106.658 109.53 106.03C109.844 105.435 110.314 104.937 110.89 104.59C111.474 104.249 112.139 104.07 112.815 104.07C113.491 104.07 114.156 104.249 114.74 104.59C115.317 104.932 115.786 105.432 116.09 106.03C116.412 106.66 116.58 107.357 116.58 108.065C116.58 108.773 116.412 109.47 116.09 110.1V110.1Z" fill="#7D749E"/>
<path d="M138.74 102.57C138.526 102.372 138.241 102.268 137.95 102.28C137.662 102.273 137.383 102.377 137.17 102.57C137.068 102.674 136.988 102.798 136.935 102.934C136.882 103.069 136.856 103.214 136.86 103.36V112.83C136.857 112.974 136.883 113.117 136.936 113.251C136.989 113.385 137.069 113.507 137.17 113.61C137.272 113.712 137.394 113.792 137.528 113.845C137.662 113.899 137.806 113.924 137.95 113.92C138.096 113.929 138.243 113.907 138.38 113.853C138.516 113.799 138.639 113.716 138.74 113.61C138.934 113.397 139.038 113.118 139.03 112.83V103.36C139.041 103.069 138.937 102.785 138.74 102.57V102.57Z" fill="#7D749E"/>
<path d="M150.81 112.09C150.725 111.991 150.619 111.912 150.5 111.861C150.38 111.809 150.25 111.784 150.12 111.79H149.59C149.427 111.784 149.269 111.733 149.134 111.643C148.998 111.553 148.889 111.427 148.82 111.28C148.609 110.88 148.509 110.431 148.53 109.98V98.36C148.538 98.2177 148.515 98.0754 148.463 97.9426C148.412 97.8098 148.332 97.6895 148.23 97.59C148.082 97.433 147.889 97.325 147.678 97.2804C147.467 97.2358 147.247 97.2568 147.048 97.3405C146.849 97.4243 146.68 97.5667 146.565 97.7489C146.449 97.9311 146.391 98.1443 146.4 98.36V110C146.392 110.687 146.528 111.369 146.8 112C147.037 112.569 147.433 113.059 147.94 113.41C148.426 113.741 149.002 113.915 149.59 113.91V113.91C149.963 113.927 150.332 113.821 150.64 113.61C150.766 113.525 150.868 113.41 150.938 113.276C151.008 113.141 151.043 112.991 151.04 112.84C151.059 112.57 150.977 112.303 150.81 112.09V112.09Z" fill="#7D749E"/>
<path d="M166.76 105.1C165.954 103.767 164.662 102.799 163.156 102.402C161.65 102.004 160.049 102.208 158.69 102.97C157.803 103.475 157.071 104.211 156.57 105.1C156.055 106.015 155.79 107.05 155.8 108.1C155.787 109.144 156.035 110.175 156.52 111.1C156.98 111.977 157.672 112.71 158.52 113.22C159.357 113.73 160.32 113.993 161.3 113.98C162.086 113.986 162.863 113.816 163.574 113.482C164.286 113.148 164.913 112.659 165.41 112.05V112.83C165.402 112.975 165.426 113.119 165.479 113.254C165.533 113.389 165.615 113.51 165.72 113.61C165.929 113.81 166.206 113.921 166.495 113.921C166.784 113.921 167.061 113.81 167.27 113.61C167.375 113.51 167.457 113.389 167.511 113.254C167.564 113.119 167.588 112.975 167.58 112.83V108.09C167.573 107.039 167.291 106.008 166.76 105.1V105.1ZM164.96 110.1C164.644 110.687 164.178 111.18 163.61 111.53C163.024 111.871 162.358 112.05 161.68 112.05C161.002 112.05 160.336 111.871 159.75 111.53C159.179 111.181 158.71 110.688 158.39 110.1C158.061 109.472 157.89 108.774 157.89 108.065C157.89 107.356 158.061 106.658 158.39 106.03C158.704 105.435 159.174 104.937 159.75 104.59C160.182 104.325 160.664 104.152 161.166 104.082C161.668 104.011 162.179 104.044 162.668 104.179C163.156 104.314 163.612 104.548 164.006 104.867C164.4 105.185 164.725 105.581 164.96 106.03C165.282 106.66 165.45 107.357 165.45 108.065C165.45 108.773 165.282 109.47 164.96 110.1V110.1Z" fill="#7D749E"/>
<path d="M180.21 112.09C180.129 111.994 180.028 111.918 179.914 111.866C179.799 111.814 179.675 111.788 179.55 111.79H178.83C178.607 111.79 178.388 111.739 178.188 111.64C177.988 111.541 177.815 111.397 177.68 111.22C177.364 110.812 177.202 110.306 177.22 109.79V104.53H179C179.132 104.539 179.265 104.521 179.39 104.478C179.515 104.435 179.631 104.368 179.73 104.28C179.818 104.198 179.887 104.099 179.933 103.989C179.98 103.879 180.003 103.76 180 103.64C180.005 103.514 179.984 103.388 179.937 103.271C179.891 103.154 179.82 103.048 179.73 102.96C179.529 102.783 179.268 102.69 179 102.7H177.2V99.64C177.196 99.4287 177.131 99.2231 177.012 99.0482C176.893 98.8734 176.726 98.7368 176.531 98.6552C176.336 98.5736 176.121 98.5505 175.914 98.5887C175.706 98.6268 175.513 98.7245 175.36 98.87C175.166 99.0783 175.061 99.3551 175.07 99.64V102.7H174.07C173.802 102.69 173.541 102.783 173.34 102.96C173.25 103.048 173.179 103.154 173.133 103.271C173.086 103.388 173.065 103.514 173.07 103.64C173.067 103.76 173.09 103.879 173.137 103.989C173.183 104.099 173.252 104.198 173.34 104.28C173.439 104.368 173.555 104.435 173.68 104.478C173.805 104.521 173.938 104.539 174.07 104.53H175.07V109.79C175.058 110.523 175.226 111.247 175.56 111.9C175.866 112.505 176.333 113.014 176.91 113.37C177.476 113.736 178.136 113.927 178.81 113.92H179.2C179.527 113.933 179.847 113.826 180.1 113.62C180.211 113.525 180.3 113.407 180.36 113.274C180.421 113.141 180.451 112.996 180.45 112.85C180.465 112.576 180.38 112.306 180.21 112.09V112.09Z" fill="#7D749E"/>
<path d="M195.86 102.38C195.699 102.311 195.525 102.277 195.35 102.28C195.165 102.282 194.985 102.341 194.836 102.451C194.687 102.56 194.577 102.714 194.52 102.89L191.09 110.62L187.19 102.87C187.119 102.693 186.996 102.542 186.837 102.436C186.678 102.331 186.491 102.276 186.3 102.28C186.156 102.278 186.013 102.306 185.88 102.36C185.702 102.44 185.547 102.564 185.43 102.72C185.318 102.866 185.258 103.046 185.26 103.23C185.255 103.386 185.289 103.541 185.36 103.68L190.15 112.77L188 117.56C187.915 117.717 187.87 117.892 187.87 118.07C187.875 118.258 187.94 118.44 188.055 118.589C188.17 118.738 188.329 118.847 188.51 118.9C188.671 118.974 188.844 119.018 189.02 119.03C189.212 119.027 189.397 118.96 189.547 118.841C189.697 118.722 189.804 118.556 189.85 118.37L196.36 103.72C196.439 103.561 196.484 103.387 196.49 103.21C196.489 103.022 196.427 102.84 196.313 102.69C196.199 102.541 196.041 102.432 195.86 102.38Z" fill="#7D749E"/>
<path d="M35.4 98.17C34.6233 98.1828 33.8819 98.4963 33.3317 99.0447C32.7815 99.593 32.4654 100.333 32.45 101.11V101.27C32.4326 101.962 32.655 102.639 33.0797 103.186C33.5044 103.733 34.1051 104.116 34.78 104.27C35.2094 104.363 35.654 104.358 36.0813 104.256C36.5086 104.154 36.9076 103.958 37.2491 103.682C37.5906 103.406 37.8659 103.056 38.0546 102.66C38.2434 102.263 38.3409 101.829 38.34 101.39V101.18C38.3501 100.683 38.2367 100.192 38.01 99.75C37.762 99.2723 37.3873 98.8722 36.9269 98.5935C36.4665 98.3147 35.9382 98.1682 35.4 98.17V98.17Z" fill="#7D749E"/>
<path d="M27.93 98.21C27.2538 98.3761 26.6509 98.7596 26.2137 99.3016C25.7765 99.8435 25.5293 100.514 25.51 101.21V101.21C25.4926 101.902 25.715 102.579 26.1397 103.126C26.5644 103.673 27.1651 104.056 27.84 104.21C28.2687 104.301 28.7122 104.295 29.1383 104.192C29.5643 104.09 29.962 103.893 30.3023 103.617C30.6425 103.341 30.9168 102.992 31.105 102.597C31.2932 102.201 31.3906 101.768 31.39 101.33V101.12C31.406 100.681 31.3233 100.244 31.1482 99.8411C30.973 99.4383 30.7098 99.0798 30.3779 98.792C30.046 98.5042 29.6538 98.2945 29.2302 98.1782C28.8066 98.0619 28.3623 98.042 27.93 98.12V98.21Z" fill="#7D749E"/>
<path d="M234.91 57.15C235.588 58.8648 236.609 60.4232 237.91 61.73C238.12 61.8818 238.377 61.9559 238.636 61.9395C238.895 61.923 239.14 61.8172 239.33 61.64C239.432 61.5464 239.519 61.4386 239.59 61.32V61.32V61.27C241.46 59.01 243.73 57.18 246.24 57.09C249.53 56.98 251.69 60.28 253.04 63.66C257.189 56.2361 258.78 47.6531 257.567 39.2353C256.354 30.8175 252.405 23.0327 246.329 17.0821C240.253 11.1315 232.387 7.34571 223.946 6.30893C215.504 5.27216 206.957 7.04198 199.621 11.3453C192.285 15.6487 186.57 22.2464 183.356 30.1205C180.142 37.9946 179.608 46.7075 181.838 54.9148C184.067 63.1222 188.935 70.3678 195.691 75.5339C202.447 80.7 210.715 83.4993 219.22 83.5C222.839 83.4989 226.44 82.994 229.92 82C228.53 81.43 227.75 79.69 227.32 78.17C227.19 77.35 227.02 76.49 226.83 75.62C226.3 73.11 225.6 70.56 225.11 68.86C224.79 67.75 224.56 67.01 224.53 66.86C223.119 62.2437 221.218 57.7917 218.86 53.58V53.58C218.71 53.2293 218.526 52.8943 218.31 52.58V52.58C217.883 52.0252 217.349 51.5622 216.739 51.2186C216.129 50.8749 215.456 50.6577 214.76 50.58H214.64C203.93 48.65 202.23 44.45 202.01 42.64C202.01 42.36 202.01 42.08 202.01 41.8C202.04 41.1952 202.134 40.5952 202.29 40.01C203.98 33.7 213.64 34.41 219.74 32.38L220.48 32.11L221.19 31.8C222.1 31.37 223.48 30.65 225.53 29.45C226.087 29.2769 226.667 29.1859 227.25 29.18C230.25 29.18 231.04 33.98 230.86 41.55C231.503 46.9083 232.865 52.1556 234.91 57.15V57.15Z" fill="#7D749E"/>
<path d="M185.74 77.84H167.74C167.102 77.9034 166.464 77.717 165.96 77.32C165.544 76.7225 165.359 75.9938 165.44 75.27V46.42C165.463 46.0349 165.407 45.6491 165.275 45.2865C165.144 44.9238 164.939 44.5919 164.675 44.3111C164.41 44.0303 164.091 43.8066 163.737 43.6537C163.383 43.5007 163.001 43.4218 162.615 43.4218C162.229 43.4218 161.847 43.5007 161.493 43.6537C161.139 43.8066 160.82 44.0303 160.555 44.3111C160.291 44.5919 160.086 44.9238 159.955 45.2865C159.823 45.6491 159.767 46.0349 159.79 46.42V75.56C159.79 78.12 160.34 80.05 161.43 81.28C162.52 82.51 164.37 83.17 166.89 83.17H185.73C185.87 83.17 187.84 83.17 187.84 80.53C187.84 77.89 185.74 77.84 185.74 77.84Z" fill="#7D749E"/>
<path d="M66.51 54.27C67.3057 54.27 68.0687 53.9539 68.6313 53.3913C69.1939 52.8287 69.51 52.0656 69.51 51.27V51C69.5137 50.6109 69.4385 50.2252 69.289 49.8659C69.1395 49.5067 68.9187 49.1815 68.64 48.91C68.3334 48.6005 67.9614 48.3635 67.5513 48.2164C67.1413 48.0694 66.7034 48.0159 66.27 48.06C65.5448 48.1678 64.8807 48.5276 64.3943 49.0762C63.9079 49.6248 63.6302 50.3271 63.61 51.06V51.23C63.5991 52.0155 63.8968 52.774 64.439 53.3424C64.9813 53.9109 65.7249 54.2439 66.51 54.27V54.27Z" fill="#7D749E"/>
<path d="M142.7 54.2C143.373 54.0436 143.971 53.6597 144.394 53.1131C144.817 52.5665 145.038 51.8908 145.02 51.2V51C145.022 50.5873 144.937 50.1788 144.771 49.8011C144.605 49.4233 144.361 49.0847 144.056 48.8074C143.75 48.5301 143.389 48.3202 142.997 48.1914C142.605 48.0627 142.191 48.0179 141.78 48.06C141.049 48.1758 140.383 48.5466 139.9 49.1068C139.417 49.667 139.147 50.3802 139.14 51.12V51.27C139.143 51.71 139.242 52.144 139.431 52.5413C139.62 52.9386 139.894 53.2895 140.234 53.5691C140.573 53.8487 140.97 54.0501 141.397 54.1591C141.823 54.2682 142.268 54.2821 142.7 54.2V54.2Z" fill="#7D749E"/>
<path d="M137.95 101.37C138.552 101.37 139.04 100.882 139.04 100.28C139.04 99.678 138.552 99.19 137.95 99.19C137.348 99.19 136.86 99.678 136.86 100.28C136.86 100.882 137.348 101.37 137.95 101.37Z" fill="#7D749E"/>
<path d="M60.19 54.2C60.8649 54.0456 61.4656 53.6625 61.8903 53.1157C62.315 52.5689 62.5374 51.8921 62.52 51.2V51C62.5241 50.4079 62.3487 49.8285 62.017 49.338C61.6852 48.8476 61.2127 48.4691 60.6616 48.2526C60.1105 48.0361 59.5068 47.9916 58.9299 48.125C58.353 48.2584 57.83 48.5635 57.43 49C56.8967 49.5911 56.6104 50.3642 56.63 51.16V51.27C56.6325 51.71 56.7318 52.144 56.9208 52.5413C57.1098 52.9386 57.3838 53.2895 57.7235 53.5691C58.0632 53.8487 58.4603 54.0501 58.8865 54.1592C59.3127 54.2682 59.7578 54.2822 60.19 54.2V54.2Z" fill="#7D749E"/>
<path d="M148 99.89L147.85 100.03C147.89 99.9737 147.941 99.926 148 99.89Z" fill="#7D749E"/>
<path d="M150.42 61.05C149.318 60.0039 148.015 59.1931 146.59 58.667C145.165 58.1409 143.647 57.9106 142.13 57.99C140.618 57.9752 139.115 58.2256 137.69 58.73C136.327 59.2217 135.093 60.0147 134.08 61.05C132.999 62.1933 132.18 63.5583 131.68 65.05C131.078 66.9093 130.791 68.8561 130.83 70.81C130.743 73.2156 131.204 75.6094 132.18 77.81H100.18C98.9579 77.8729 97.7453 77.5663 96.7 76.93C96.2968 76.6447 95.9744 76.2599 95.7641 75.8131C95.5538 75.3662 95.4628 74.8725 95.5 74.38V46.38C95.4964 45.956 95.3983 45.5381 95.2127 45.1568C95.0272 44.7755 94.7589 44.4404 94.4273 44.1759C94.0958 43.9115 93.7095 43.7244 93.2965 43.6282C92.8835 43.532 92.4542 43.5292 92.04 43.62C91.4141 43.8041 90.8628 44.1822 90.4656 44.6998C90.0684 45.2174 89.8458 45.8478 89.83 46.5V75.23C89.9113 75.9538 89.7264 76.6824 89.31 77.28C88.8103 77.6773 88.1752 77.8639 87.54 77.8H70.64C69.4181 77.8611 68.206 77.5546 67.16 76.92C66.7568 76.6347 66.4344 76.2499 66.2241 75.8031C66.0138 75.3562 65.9228 74.8625 65.96 74.37V61.85C65.9654 61.4764 65.8959 61.1055 65.7557 60.7592C65.6155 60.4129 65.4074 60.0981 65.1437 59.8334C64.88 59.5688 64.5659 59.3596 64.2201 59.2181C63.8743 59.0767 63.5036 59.006 63.13 59.01C62.7584 59.0113 62.3906 59.0858 62.0478 59.2292C61.7049 59.3727 61.3937 59.5822 61.1318 59.8459C60.87 60.1097 60.6626 60.4224 60.5216 60.7662C60.3806 61.1101 60.3087 61.4784 60.31 61.85V75.27C60.388 75.9996 60.1959 76.7325 59.77 77.33C59.2714 77.7212 58.6406 77.904 58.01 77.84H49.13C48.0733 77.8461 47.0195 77.7286 45.99 77.49C44.9152 77.2287 43.8594 76.8946 42.83 76.49C41.83 76.12 40.74 75.7 39.51 75.2C38.94 74.96 38.2 74.64 37.41 74.35L37.31 74.27H37.16C36.5424 74.1071 35.8858 74.1888 35.3269 74.4981C34.7681 74.8073 34.3501 75.3202 34.16 75.93L34.09 76V76.14C34.0857 76.1832 34.0857 76.2268 34.09 76.27L34.04 76.38C33.851 76.9586 33.8639 77.5841 34.0764 78.1544C34.2889 78.7247 34.6885 79.2061 35.21 79.52L35.34 79.59C36.77 80.12 38.08 80.59 39.25 81.01C40.5174 81.4461 41.7564 81.9604 42.96 82.55C43.7663 82.9238 44.4903 83.454 45.09 84.11C45.5371 84.6362 45.7723 85.3099 45.75 86C45.7409 86.4189 45.6296 86.8292 45.4257 87.1952C45.2217 87.5612 44.9314 87.8719 44.58 88.1C43.79 88.71 42.29 89.02 40.11 89.02H27.54C26.3813 89.0273 25.2261 88.893 24.1 88.62C23.0746 88.3605 22.1076 87.9092 21.25 87.29C20.4163 86.6555 19.7532 85.8239 19.32 84.87C18.8029 83.6857 18.5537 82.4018 18.59 81.11C18.5853 79.4861 18.8943 77.8767 19.5 76.37C19.8923 75.3742 20.35 74.4054 20.87 73.47L20.93 73.34C21.0992 72.7344 21.0423 72.088 20.77 71.5213C20.4977 70.9546 20.0285 70.5063 19.45 70.26C18.9224 69.9095 18.2899 69.7519 17.6595 69.8139C17.029 69.8758 16.4393 70.1535 15.99 70.6L15.92 70.71C15.1102 72.0513 14.4401 73.4721 13.92 74.95C13.1612 77.0675 12.7755 79.3006 12.78 81.55C12.78 85.55 13.99 88.72 16.39 91.01C18.79 93.3 22.28 94.45 26.82 94.45H40.13C41.8711 94.4969 43.6089 94.2708 45.28 93.78C46.5393 93.4156 47.7103 92.7961 48.72 91.96C49.5639 91.2723 50.2236 90.3858 50.64 89.38C51.0151 88.4727 51.212 87.5017 51.22 86.52C51.2246 85.6785 51.0825 84.8426 50.8 84.05C50.67 83.71 50.54 83.4 50.42 83.14H58.86C61.66 83.14 63.65 82.29 64.78 80.62C65.2653 81.3372 65.9128 81.9299 66.67 82.35C67.7201 82.8918 68.8886 83.1633 70.07 83.14H88.39C91.2 83.14 93.18 82.29 94.3 80.62C94.7796 81.342 95.4285 81.9359 96.19 82.35C97.241 82.8894 98.4089 83.1608 99.59 83.14H142.08C143.662 83.1538 145.237 82.9245 146.75 82.46C148.098 82.0395 149.325 81.3023 150.33 80.31C151.376 79.2209 152.153 77.9025 152.6 76.46C153.162 74.6306 153.429 72.7233 153.39 70.81C153.44 66.37 152.43 63.08 150.42 61.05ZM146.42 76.32C145.951 76.8429 145.355 77.2356 144.69 77.46C143.857 77.7291 142.985 77.8575 142.11 77.84C140.11 77.84 138.7 77.31 137.82 76.22C136.94 75.13 136.47 73.22 136.47 70.49C136.362 68.6093 136.871 66.7449 137.92 65.18C138.41 64.5473 139.049 64.0456 139.78 63.7194C140.511 63.3932 141.312 63.2525 142.11 63.31C142.927 63.2331 143.751 63.3685 144.501 63.7031C145.251 64.0377 145.901 64.5602 146.39 65.22C147.402 66.9126 147.88 68.8714 147.76 70.84C147.78 73.45 147.33 75.3 146.44 76.32H146.42Z" fill="#7D749E"/>
<path d="M266.21 76.86C262.05 75.97 255.53 73.45 254.3 66.86L254.19 66.98C254.11 67.08 253.97 67.24 253.77 67.45C250.685 71.9889 246.622 75.7785 241.88 78.54C238.505 80.4785 234.827 81.831 231 82.54H230.91C230.91 82.54 250.46 89.54 266.57 78.84C266.726 78.7084 266.845 78.5379 266.914 78.3457C266.983 78.1536 267 77.9466 266.963 77.7457C266.927 77.5448 266.838 77.3572 266.706 77.2016C266.573 77.0461 266.402 76.9283 266.21 76.86Z" fill="#7D749E"/>
</svg>
